<?xml version="1.0" encoding="utf-8"?>
<!-- Generator: Adobe Illustrator 16.0.0, SVG Export Plug-In . SVG Version: 6.00 Build 0)  -->
<!DOCTYPE svg PUBLIC "-//W3C//DTD SVG 1.1//EN" "http://www.w3.org/Graphics/SVG/1.1/DTD/svg11.dtd">
<svg version="1.1" id="Layer_1" xmlns="http://www.w3.org/2000/svg" xmlns:xlink="http://www.w3.org/1999/xlink" x="0px" y="0px"
	 width="306px" height="308px" viewBox="255.351 437.76 306 308" enable-background="new 255.351 437.76 306 308"
	 xml:space="preserve">
<title>search icon</title>
<g>
	<title>Layer 1</title>
	<path id="path12423" fill="#FFFFFF" d="M295.939,480.086c-43.273,43.271-43.379,114.158-0.106,157.432
		c36.663,36.663,93.202,42.25,135.921,16.766l76.344,74.235c10.507,10.198,27.085,9.821,37.117-0.844
		c10.033-10.665,9.771-27.446-0.738-37.645l-75.183-72.863c26.361-42.848,21.008-100.046-16.028-137.081
		C409.993,436.813,339.211,436.813,295.939,480.086L295.939,480.086z M327.678,511.824c26.102-26.102,67.746-26.102,93.849,0
		c26.102,26.103,26.102,67.746,0,93.849c-26.103,26.102-67.747,26.102-93.849,0C301.576,579.571,301.576,537.927,327.678,511.824z"
		/>
</g>
</svg>
